<svg xmlns="http://www.w3.org/2000/svg" width="49" height="62" viewBox="0 0 49 62">
    <g fill="none" fill-rule="evenodd">
        <path stroke="#FF5959" stroke-width="3" d="M45.5 12.5h-42V52c0 2.347.951 4.472 2.49 6.01C7.528 59.55 9.653 60.5 12 60.5h25c2.347 0 4.472-.951 6.01-2.49 1.539-1.538 2.49-3.663 2.49-6.01V12.5z"/>
        <rect width="14" height="5" x="17.5" y="1.5" stroke="#FF5959" stroke-width="3" rx="2.5"/>
        <path fill="#FF5959" d="M49 5L49 8 0 8 0 5z"/>
        <path fill="#0F3476" d="M32 23H35V50H32zM23 23H26V50H23zM14 23H17V50H14z"/>
    </g>
</svg>
