<svg xmlns="http://www.w3.org/2000/svg" xmlns:xlink="http://www.w3.org/1999/xlink" width="62" height="62" viewBox="0 0 62 62">
    <defs>
        <path id="prefix__a" d="M58.666 45c-.525 1.036-1.106 2.037-1.74 3H5.074c-.633-.963-1.214-1.964-1.739-3zm3.318-15c.01.332.016.666.016 1 0 .672-.021 1.34-.063 2H.063C.021 32.34 0 31.673 0 31c0-.334.005-.668.016-1zm-4.427-15c.584.967 1.116 1.968 1.594 3H2.849c.478-1.032 1.01-2.033 1.594-3z"/>
    </defs>
    <g fill="none" fill-rule="evenodd">
        <circle cx="31" cy="31" r="29.5" stroke="#FF5959" stroke-width="3"/>
        <ellipse cx="31" cy="31" stroke="#FF5959" stroke-width="3" rx="15.5" ry="29.5"/>
        <path fill="#FF5959" d="M62 29.5L62 32.5 0 32.5 0 29.5z" transform="rotate(90 31 31)"/>
        <use fill="#FF5959" xlink:href="#prefix__a"/>
    </g>
</svg>
