<svg xmlns="http://www.w3.org/2000/svg" width="238" height="143" viewBox="0 0 238 143">
    <g fill="#0F3476" opacity=".2">
        <path d="M81.971 140.47H8.457c-.529 0-1.042-.21-1.41-.574-.374-.363-.589-.872-.589-1.388l.005-24.432c0-1.079.892-1.962 1.994-1.962 1.096 0 1.993.883 1.993 1.962v22.47h69.523V68.528H10.45V79.74c0 1.084-.897 1.962-1.993 1.962-1.102 0-1.999-.878-1.999-1.962V66.546c0-.52.215-1.025.588-1.388.37-.368.882-.574 1.41-.574.205 0 .36.01.474.015.08.005.14.005.174.005h72.867c.523 0 1.036.21 1.405.578.374.363.583.87.583 1.384v71.942c0 .525-.204 1.016-.583 1.388-.374.368-.877.574-1.405.574z"/>
        <path d="M102.376 142.085H95.898c-1.096 0-1.993-.89-1.993-1.979 0-1.093.897-1.979 1.993-1.979h56.732V24.947H83.107v95.213c0 1.094-.897 1.979-1.993 1.979-1.102 0-1.999-.885-1.999-1.979V22.97c0-.525.215-1.034.588-1.4.37-.371.882-.58 1.41-.58h73.51c.528 0 1.041.209 1.41.58.368.366.583.876.583 1.4v117.137c0 .53-.204 1.024-.583 1.4-.379.371-.877.579-1.41.579h-52.247z"/>
        <path d="M227.28 140.47h-73.515c-.523 0-1.036-.21-1.41-.574-.368-.363-.583-.872-.583-1.388V66.566c0-.515.215-1.02.583-1.384.374-.367.887-.578 1.41-.578h72.848c.035 0 .084 0 .16-.005.113-.006.283-.015.507-.015.524 0 1.037.206 1.405.574.374.363.588.873.588 1.388v13.21c0 1.078-.897 1.962-1.993 1.962-1.1 0-1.992-.884-1.992-1.962V68.528h-69.53v68.018h69.53v-22.455c0-1.085.891-1.962 1.992-1.962 1.096 0 1.993.877 1.993 1.962v24.417c0 .525-.209 1.015-.588 1.388-.373.368-.877.574-1.405.574zM39.971 98.49H26.228c-.533 0-1.05-.203-1.421-.553-.377-.355-.588-.841-.588-1.338v-18.82c0-.497.21-.985.588-1.34.371-.354.893-.553 1.42-.553h13.744c.532 0 1.05.204 1.421.554.377.354.588.842.588 1.338v18.82c0 .507-.206.98-.588 1.34-.377.354-.884.553-1.42.553zm-11.735-3.783h9.727V79.67h-9.727v15.037zM67.426 98.49H53.674c-.527 0-1.044-.203-1.415-.553-.376-.355-.592-.841-.592-1.338v-18.82c0-.497.216-.99.592-1.34.371-.354.888-.553 1.415-.553h13.752c.527 0 1.044.204 1.415.554.376.354.587.842.587 1.338v18.82c0 .507-.206.98-.587 1.34-.376.354-.883.553-1.415.553zm-11.74-3.783h9.728V79.67h-9.733l.005 15.037zM67.421 129.168H53.679c-.527 0-1.049-.204-1.42-.559-.376-.35-.592-.838-.592-1.335v-18.816c0-.497.216-.985.592-1.34.371-.356.888-.554 1.42-.554h13.742c.532 0 1.049.198 1.42.554.376.35.587.838.587 1.34v18.816c0 .503-.206.98-.587 1.335-.376.36-.883.559-1.42.559zm-11.735-3.788h9.733v-15.028h-9.733v15.028zM39.971 129.168H26.228c-.528 0-1.05-.204-1.421-.559-.377-.35-.588-.838-.588-1.335v-18.816c0-.497.21-.99.588-1.34.371-.356.893-.554 1.42-.554h13.744c.532 0 1.05.198 1.421.554.377.355.588.843.588 1.34v18.816c0 .503-.206.98-.588 1.335-.377.36-.884.559-1.42.559zm-11.735-3.788h9.727v-15.028h-9.727v15.028zM125.594 83.96h-10.613c-.514 0-1.019-.204-1.386-.55-.362-.352-.573-.836-.573-1.329V61.618c0-.493.21-.976.573-1.329.367-.347.872-.549 1.386-.549h10.613c.52 0 1.024.202 1.386.55.368.352.573.835.573 1.328v20.463c0 .502-.2.971-.573 1.329-.367.352-.862.55-1.386.55zm-8.654-3.756h6.695V63.496h-6.695v16.708zM104.602 83.96H93.989c-.513 0-1.017-.204-1.384-.55-.362-.352-.573-.836-.573-1.329V61.618c0-.493.21-.976.573-1.329.362-.347.866-.549 1.384-.549h10.613c.518 0 1.022.202 1.384.55.367.352.578.835.578 1.328v20.463c0 .502-.206.971-.578 1.329-.367.352-.86.55-1.384.55zm-8.656-3.756h6.703V63.496h-6.703v16.708zM146.586 83.96H135.97c-.513 0-1.023-.204-1.385-.55-.361-.352-.572-.836-.572-1.329V61.618c0-.493.21-.976.572-1.329.362-.347.872-.549 1.385-.549h10.617c.52 0 1.023.202 1.385.55.362.352.572.835.572 1.328v20.463c0 .502-.205.971-.572 1.329-.372.352-.86.55-1.385.55zm-8.66-3.756h6.702V63.496h-6.702v16.708zM118.673 53.282c-1.338 0-2.422-.846-2.422-1.88v-20.46c0-1.033 1.084-1.88 2.422-1.88 1.332 0 2.422.847 2.422 1.88v20.46c0 1.034-1.09 1.88-2.422 1.88z"/>
        <path d="M128.903 45.209h-20.46c-1.038 0-1.88-1.084-1.88-2.422s.842-2.422 1.88-2.422h20.46c1.039 0 1.88 1.084 1.88 2.422s-.841 2.422-1.88 2.422zM138.486 142.085h-18.63c-.527 0-1.038-.214-1.405-.583-.372-.369-.585-.886-.585-1.41v-39.609c0-.523.213-1.042.585-1.41.367-.373.878-.582 1.404-.582h18.63c.522 0 1.033.209 1.405.582.367.368.58.887.58 1.41v39.61c0 .532-.208 1.03-.58 1.409-.377.374-.873.583-1.404.583zm-16.652-3.985h14.667v-35.625H121.84l-.006 35.625z"/>
        <path d="M119.11 142.085h-18.634c-.521 0-1.032-.214-1.405-.583-.367-.374-.58-.886-.58-1.41v-39.609c0-.523.213-1.042.58-1.41.373-.373.884-.582 1.405-.582h18.634c.52 0 1.032.209 1.399.582.372.368.586.887.586 1.41v39.61c0 .532-.208 1.03-.586 1.409-.372.374-.873.583-1.4.583zm-16.648-3.985h14.657v-35.625h-14.657V138.1zM82.015 67.813H1.952c-.658 0-1.267-.315-1.628-.846-.365-.53-.424-1.193-.165-1.776l8.433-18.85c.312-.69 1.014-1.132 1.788-1.132h66.256c1.077 0 1.95.841 1.95 1.88 0 1.033-.873 1.874-1.95 1.874h-64.97l-6.752 15.09h77.101s.005 0 .005.005c1.072 0 1.94.846 1.94 1.875 0 1.039-.873 1.88-1.945 1.88zM155.33 67.813c-1.069 0-1.943-.841-1.943-1.88 0-1.033.874-1.88 1.943-1.88h77.114l-6.756-15.085h-64.5c-1.074 0-1.943-.846-1.943-1.88 0-1.038.869-1.88 1.942-1.88h65.778c.772 0 1.47.442 1.777 1.133l8.442 18.845c.262.583.204 1.25-.155 1.781-.364.531-.972.846-1.628.846H155.33zM185.287 98.49H171.54c-.527 0-1.044-.203-1.42-.553-.371-.355-.587-.841-.587-1.338v-18.82c0-.497.216-.985.587-1.34.376-.354.893-.553 1.42-.553h13.747c.527 0 1.043.204 1.42.554.37.35.587.837.587 1.338v18.82c0 .507-.211.98-.587 1.34-.381.354-.883.553-1.42.553zm-11.74-3.783h9.733V79.67h-9.733v15.037zM212.735 98.49h-13.747c-.527 0-1.043-.203-1.42-.553-.37-.355-.587-.841-.587-1.338v-18.82c0-.503.216-.99.587-1.34.377-.354.893-.553 1.42-.553h13.747c.527 0 1.044.204 1.42.554.37.354.587.842.587 1.338v18.82c0 .507-.21.98-.587 1.34-.382.354-.884.553-1.42.553zm-11.74-3.783h9.733V79.67h-9.733v15.037zM212.735 129.168h-13.747c-.527 0-1.043-.204-1.42-.559-.37-.35-.587-.838-.587-1.335v-18.816c0-.502.216-.99.587-1.34.377-.356.893-.554 1.42-.554h13.747c.527 0 1.044.198 1.42.554.37.35.587.843.587 1.34v18.816c0 .507-.21.98-.587 1.335-.382.36-.884.559-1.42.559zm-11.74-3.788h9.733v-15.028h-9.733v15.028zM185.287 129.168H171.54c-.527 0-1.049-.204-1.42-.559-.371-.35-.587-.838-.587-1.335v-18.816c0-.502.216-.99.587-1.34.371-.356.889-.554 1.42-.554h13.747c.527 0 1.043.198 1.42.554.37.355.587.843.587 1.34v18.816c0 .503-.211.98-.587 1.335-.381.36-.883.559-1.42.559zm-11.74-3.788h9.733v-15.028h-9.733v15.028zM162.237 22.604H69.781c-.668 0-1.277-.319-1.646-.845-.363-.531-.422-1.198-.162-1.78L76.48 1.136C76.79.447 77.497 0 78.283 0l66.788.005c1.086 0 1.965.84 1.965 1.874 0 1.038-.88 1.879-1.965 1.879H79.575l-6.808 15.088h92.688c.21-.347.524-.61.912-.77.251-.104.511-.155.781-.155.782 0 1.488.441 1.803 1.132l.418.925c.265.583.207 1.245-.162 1.776-.363.531-.977.85-1.64.85h-5.33z"/>
    </g>
</svg>
