<svg xmlns="http://www.w3.org/2000/svg" width="14" height="14" viewBox="0 0 14 14">
    <path fill="none" fill-rule="evenodd" stroke="#0F3476" stroke-width="2" d="M12 9H2c-.276 0-.526.112-.707.293-.181.18-.293.43-.293.707v2c0 .276.112.526.293.707.18.181.43.293.707.293h10c.276 0 .526-.112.707-.293.181-.18.293-.43.293-.707v-2c0-.276-.112-.526-.293-.707C12.527 9.112 12.277 9 12 9zm0-8H2c-.276 0-.526.112-.707.293C1.112 1.473 1 1.723 1 2v2c0 .276.112.526.293.707.18.181.43.293.707.293h10c.276 0 .526-.112.707-.293.181-.18.293-.43.293-.707V2c0-.276-.112-.526-.293-.707C12.527 1.112 12.277 1 12 1z"/>
</svg>
