<svg xmlns="http://www.w3.org/2000/svg" width="30" height="30" viewBox="0 0 30 30">
    <g fill="none">
        <path fill="#FFF" d="M11.343 24.3L9.357 24.3 9.357 29.335 11.343 29.335zM1.986 29.335H0V17.984c0-1.2.146-2.4.438-3.56l1.93.487c-.252.997-.382 2.035-.382 3.073v11.351zM6.47 21.446L4.484 21.446 4.484 29.335 6.47 29.335z" transform="translate(.13)"/>
        <path fill="#FF5959" d="M14.627 21.77c-5.595 0-10.151-4.548-10.151-10.151V.009h1.986v11.61c0 4.5 3.665 8.165 8.165 8.165 1.33 0 2.643-.325 3.81-.94l.933 1.759c-1.451.754-3.089 1.167-4.743 1.167zM24.778.008L22.792.008 22.792 7.905 24.778 7.905z" transform="translate(.13)"/>
        <path fill="#FF5959" d="M14.627 25.986C6.559 25.986 0 19.427 0 11.36V.01h1.986v11.35C1.986 18.332 7.662 24 14.627 24c1.354 0 2.684-.21 3.965-.632l.624 1.889c-1.475.478-3.024.73-4.589.73zm14.278-11.448l-1.937-.43c.202-.9.3-1.824.3-2.757V0h1.986v11.351c0 1.079-.113 2.149-.349 3.187z" transform="translate(.13)"/>
        <path fill="#FF5959" d="M14.627 17.165c-2.91 0-5.278-2.368-5.278-5.278V.008h1.986v11.887c0 1.816 1.476 3.292 3.292 3.292.957 0 1.873-.422 2.497-1.152l1.508 1.29c-1.005 1.167-2.464 1.84-4.005 1.84zm5.278-12.122H17.92V.008h1.986v5.035z" transform="translate(.13)"/>
        <path fill="#FFF" d="M24.778 29.335h-1.986v-11.61c0-4.5-3.665-8.165-8.165-8.165-1.33 0-2.651.324-3.819.948l-.932-1.76c1.451-.77 3.097-1.175 4.743-1.175 5.595 0 10.151 4.549 10.151 10.151v11.611h.008z" transform="translate(.13)"/>
        <path fill="#FFF" d="M29.254 29.335h-1.986V17.984c0-6.973-5.676-12.64-12.641-12.64-1.354 0-2.692.21-3.973.64l-.624-1.89c1.475-.486 3.024-.737 4.597-.737 8.068 0 14.627 6.56 14.627 14.627v11.351z" transform="translate(.13)"/>
        <path fill="#FFF" d="M19.905 29.335H17.92V17.45c0-1.817-1.476-3.292-3.292-3.292-.957 0-1.873.421-2.497 1.151l-1.508-1.289c1.005-1.176 2.464-1.849 4.005-1.849 2.91 0 5.278 2.368 5.278 5.279v11.886z" transform="translate(.13)"/>
        <path fill="#FF5959" d="M14.627 17.165c-2.91 0-5.278-2.368-5.278-5.278V.008h1.986v11.887c0 1.816 1.476 3.292 3.292 3.292v1.978z" transform="translate(.13)"/>
    </g>
</svg>
