<svg xmlns="http://www.w3.org/2000/svg" width="128" height="88" viewBox="0 0 128 88">
    <g fill="none">
        <g>
            <path fill="#0F3476" d="M9.721 17.232L9.721 10.645 3.712 10.645 3.712 17.232 0 17.232 0 1.069 3.712.924 3.712 7.699 9.721 7.699 9.721 1.069 13.433 1.069 13.433 17.232zM26.953 14.69c-.549.896-1.3 1.603-2.267 2.08-.968.477-2.066.722-3.308.722-1.257 0-2.355-.23-3.308-.708-.953-.462-1.69-1.155-2.224-2.065-.535-.91-.795-2.008-.795-3.293 0-1.243.275-2.312.823-3.236.55-.924 1.3-1.618 2.254-2.109.953-.491 2.05-.737 3.293-.737 1.257 0 2.355.246 3.322.723.954.476 1.705 1.184 2.239 2.109.534.924.794 2.022.794 3.307-.014 1.243-.288 2.311-.823 3.207zm-3.726-1.069c.462-.534.693-1.257.693-2.138 0-.88-.231-1.617-.679-2.18-.448-.564-1.055-.853-1.791-.853-.78 0-1.401.274-1.849.823-.448.55-.693 1.271-.693 2.181 0 .91.23 1.633.679 2.182.447.548 1.054.823 1.82.823.765 0 1.357-.303 1.82-.838zM29.409 16.236l1.098-2.427c.49.231 1.04.433 1.632.578.592.144 1.098.23 1.517.23.375 0 .722-.071 1.01-.201.29-.13.434-.318.434-.564 0-.202-.144-.404-.419-.592-.274-.188-.664-.361-1.155-.52-1.156-.39-2.11-.881-2.846-1.473-.751-.593-1.112-1.33-1.112-2.24 0-1.14.433-2.036 1.285-2.7.853-.665 2.023-.983 3.525-.983.607 0 1.3.102 2.109.304.794.202 1.473.505 2.036.91l-1.068 2.426c-1.113-.49-2.095-.736-2.947-.736-.361 0-.665.072-.91.216-.231.145-.361.333-.361.55 0 .26.505.548 1.502.91 2.643.924 3.972 2.21 3.972 3.856 0 1.184-.404 2.109-1.228 2.759-.823.65-2.007.968-3.582.968-.635 0-1.4-.101-2.31-.304-.925-.216-1.648-.534-2.182-.967zM51.076 6.919c1.054 1.04 1.574 2.528 1.574 4.449 0 1.92-.534 3.423-1.603 4.506-1.07 1.084-2.528 1.633-4.391 1.633-.578 0-1.17-.13-1.806-.376v5.085l-3.712.23V5.735h1.878l.635.708c.997-.722 2.051-1.098 3.135-1.098 1.82 0 3.235.52 4.29 1.575zm-2.89 6.745c.434-.577.636-1.328.636-2.267 0-.954-.216-1.69-.635-2.24-.434-.534-1.026-.808-1.777-.808-.491 0-1.011.188-1.546.549v5.142c.535.332 1.084.506 1.647.506.693-.015 1.257-.304 1.676-.882zM56.839 4.117c-.549 0-1.04-.203-1.444-.607-.405-.404-.607-.881-.607-1.444 0-.564.202-1.055.607-1.46.404-.404.88-.606 1.444-.606.578 0 1.054.202 1.459.607.404.404.607.895.607 1.459 0 .548-.203 1.04-.607 1.444-.39.404-.881.607-1.459.607zM54.99 17.232V5.706h3.727v11.526H54.99zM68.683 5.966l.665 2.903h-3.236v3.857c0 .534.13.967.405 1.314.274.347.635.506 1.112.506.491 0 .982-.13 1.473-.376l1.07 2.586c-.275.216-.68.418-1.243.592-.549.173-1.069.26-1.546.26-1.458 0-2.657-.376-3.596-1.141-.94-.766-1.401-1.835-1.401-3.236V8.87h-1.661V5.966h1.66V3.048l3.713-.578v3.496h2.585zM73.363 9.273l-.996-2.86c.52-.289 1.242-.534 2.166-.75.925-.217 1.748-.319 2.47-.319.968 0 1.82.188 2.572.578.75.39 1.314.91 1.718 1.604.405.693.607 1.473.607 2.368v7.353h-2.065l-.882-1.214c-.852.983-1.805 1.474-2.83 1.474-1.402 0-2.456-.347-3.164-1.04-.708-.694-1.069-1.633-1.069-2.817 0-1.17.39-2.051 1.184-2.643.795-.593 1.878-.881 3.265-.881h1.805c-.028-.506-.187-.896-.49-1.17-.29-.275-.68-.42-1.17-.42-.463 0-.983.073-1.575.217-.592.145-1.098.318-1.546.52zm1.676 4.348c0 .289.101.535.303.737.203.202.477.303.81.303.692 0 1.371-.303 2.021-.91V12.35h-1.805c-.39 0-.722.116-.968.361-.245.246-.361.549-.361.91zM85.063 17.232L85.063.708 88.776.448 88.776 17.232z" transform="translate(0 65)"/>
            <path fill="#FF5959" d="M101.689 1.069l6.139 15.975-3.655.434-1.314-3.727H96.98l-1.257 3.496h-3.712l6.182-16.164h3.496V1.07zm-1.835 4.709L98.02 10.79h3.727l-1.893-5.012zM111.699 4.117c-.549 0-1.04-.203-1.444-.607-.405-.404-.607-.881-.607-1.444 0-.564.202-1.055.607-1.46.404-.404.88-.606 1.444-.606.578 0 1.054.202 1.459.607.404.404.607.895.607 1.459 0 .548-.203 1.04-.607 1.444-.405.404-.896.607-1.459.607zm-1.863 13.115V5.706h3.726v11.526h-3.726zM127.602.448v16.784h-1.906l-.694-.924c-.476.361-.996.65-1.545.867-.55.216-1.127.317-1.72.317-1.79 0-3.22-.52-4.275-1.574-1.054-1.055-1.589-2.513-1.589-4.435 0-1.92.535-3.423 1.618-4.506 1.083-1.084 2.542-1.632 4.391-1.632.65 0 1.315.158 1.98.476V.708l3.74-.26zm-7.236 13.26c.433.549 1.025.823 1.79.823.52 0 1.098-.216 1.705-.664V8.94c-.563-.39-1.17-.592-1.805-.592-.694 0-1.257.289-1.69.852-.434.578-.636 1.33-.636 2.254 0 .953.217 1.704.636 2.253z" transform="translate(0 65)"/>
        </g>
        <g>
            <path fill="#0F3476" d="M20.269 42.93L16.76 42.93 16.76 51.825 20.269 51.825zM3.739 51.825H.229V31.771c0-2.12.258-4.24.774-6.288l3.409.86c-.444 1.761-.673 3.595-.673 5.428v20.054zM11.66 37.888L8.151 37.888 8.151 51.825 11.66 51.825z" transform="translate(38)"/>
            <path fill="#FF5959" d="M26.07 38.46c-9.883 0-17.934-8.035-17.934-17.933V.014h3.51v20.513c0 7.95 6.474 14.424 14.424 14.424 2.35 0 4.67-.573 6.733-1.661l1.647 3.108c-2.564 1.332-5.457 2.063-8.38 2.063zM44.004.014L40.495.014 40.495 13.966 44.004 13.966z" transform="translate(38)"/>
            <path fill="#FF5959" d="M26.07 45.91C11.818 45.91.23 34.32.23 20.067V.014h3.509v20.054c0 12.32 10.027 22.332 22.331 22.332 2.393 0 4.742-.372 7.005-1.117l1.103 3.337c-2.607.845-5.343 1.29-8.108 1.29zm25.226-20.227l-3.424-.759c.358-1.59.53-3.223.53-4.87V0h3.51v20.054c0 1.905-.201 3.796-.616 5.63z" transform="translate(38)"/>
            <path fill="#FF5959" d="M26.07 30.325c-5.142 0-9.325-4.183-9.325-9.325V.014h3.51v21c0 3.208 2.607 5.816 5.815 5.816 1.69 0 3.31-.745 4.412-2.035l2.665 2.278c-1.777 2.063-4.355 3.252-7.077 3.252zM35.396 8.91h-3.51V.014h3.51V8.91z" transform="translate(38)"/>
            <path fill="#0F3476" d="M44.004 51.825h-3.509V31.313c0-7.95-6.475-14.425-14.425-14.425-2.349 0-4.684.573-6.746 1.676l-1.648-3.108c2.564-1.36 5.472-2.077 8.38-2.077 9.884 0 17.934 8.036 17.934 17.934v20.512h.014z" transform="translate(38)"/>
            <path fill="#0F3476" d="M51.911 51.825h-3.509V31.771c0-12.319-10.027-22.331-22.332-22.331-2.392 0-4.755.372-7.019 1.131l-1.103-3.337c2.608-.86 5.343-1.304 8.122-1.304 14.253 0 25.841 11.588 25.841 25.841v20.054z" transform="translate(38)"/>
            <path fill="#0F3476" d="M35.395 51.825h-3.51V30.826c0-3.209-2.606-5.816-5.815-5.816-1.69 0-3.309.745-4.412 2.034l-2.664-2.277C20.77 22.69 23.349 21.5 26.07 21.5c5.143 0 9.325 4.183 9.325 9.325v21z" transform="translate(38)"/>
            <path fill="#FF5959" d="M26.07 30.325c-5.142 0-9.325-4.183-9.325-9.325V.014h3.51v21c0 3.208 2.607 5.816 5.815 5.816v3.495z" transform="translate(38)"/>
        </g>
    </g>
</svg>
