<svg xmlns="http://www.w3.org/2000/svg" width="32" height="32" viewBox="0 0 32 32">
    <path fill="#FF5959" fill-rule="evenodd" d="M26.936 1.674c-1.753-.538-3.738-.113-5.126 1.274-1.221 1.222-1.696 2.906-1.426 4.488L14.87 12.95 4.71 2.789l-.885-1.785L1.38 0 0 1.38l1.005 2.444 1.784.884L12.95 14.869l-10.7 10.7c-1.067 1.068-1.067 2.814 0 3.88l.3.302c1.067 1.066 2.813 1.066 3.88 0l10.701-10.7 1.503 1.502-2.246 2.247 3.166 1.56 6.197 6.197c3.896 3.896 8.702-.91 4.806-4.806l-6.197-6.198-1.559-3.166-2.247 2.247-1.504-1.503 5.514-5.515c1.582.27 3.267-.205 4.488-1.426 1.387-1.387 1.812-3.373 1.274-5.126l-3.854 3.853-3.388-3.39 3.852-3.853zM21.05 23.812l1.03-1.033 6.377 6.376-1.032 1.033-6.375-6.376zm1.731-1.732l1.032-1.032 6.376 6.375-1.032 1.033-6.376-6.376zM6.032 25.968c-.763-.763-2-.763-2.764 0-.762.764-.762 2 0 2.764.763.762 2 .762 2.764 0 .763-.763.763-2 0-2.764z"/>
</svg>
