<svg xmlns="http://www.w3.org/2000/svg" width="32" height="32" viewBox="0 0 32 32">
    <path fill="#0F3476" fill-rule="evenodd" d="M28.8 16v15.36c0 .352-.288.64-.64.64H3.84c-.352 0-.64-.288-.64-.64V16h25.6zM8.211 25.248c-.237-.358-.826-.358-1.062 0l-1.28 1.92c-.199.288-.116.691.179.883.288.199.685.115.883-.179l.109-.16V28.8c0 .352.288.64.64.64.352 0 .64-.288.64-.64v-1.088l.109.16c.121.186.326.288.53.288.122 0 .244-.032.353-.109.294-.192.377-.595.179-.883zm5.12 0c-.237-.358-.826-.358-1.062 0l-1.28 1.92c-.199.288-.116.691.179.883.288.199.685.115.883-.179l.109-.16V28.8c0 .352.288.64.64.64.352 0 .64-.288.64-.64v-1.088l.109.16c.121.186.326.288.53.288.123 0 .244-.032.353-.109.294-.192.378-.595.18-.883zM28.813 0l.103.013c.21.039.384.173.467.365l2.56 5.76c.102.224.064.486-.09.672l-2.934 3.52 1.731 3.462c.102.199.09.436-.026.627-.115.186-.32.301-.544.301H1.92c-.224 0-.43-.115-.544-.3-.116-.192-.128-.43-.026-.628l1.73-3.461L.148 6.81c-.154-.187-.192-.449-.09-.673l2.56-5.76c.083-.192.256-.326.467-.365.205-.038.416.026.57.173l3.008 3.015h18.676L28.346.186c.154-.147.365-.217.57-.173zm-3.648 4.48H6.835L4.787 9.6h22.426l-2.048-5.12z"/>
</svg>
