<svg xmlns="http://www.w3.org/2000/svg" width="16" height="20" viewBox="0 0 16 20">
    <path fill="none" fill-rule="evenodd" stroke="#FEFFFE" stroke-width="2" d="M10.839 10.677H5.16c-1.149 0-2.19.466-2.942 1.22C1.466 12.648 1 13.69 1 14.838v1.935c0 .615.25 1.171.652 1.574.403.403.96.652 1.574.652h9.548c.615 0 1.171-.25 1.574-.652.403-.403.652-.96.652-1.574V14.84c0-1.15-.466-2.19-1.219-2.943-.753-.753-1.793-1.219-2.942-1.219zM8 1c-.872 0-1.66.357-2.232.933-.574.578-.928 1.378-.928 2.26 0 .883.354 1.683.928 2.262.571.575 1.36.932 2.232.932.872 0 1.66-.357 2.232-.932.574-.58.928-1.379.928-2.261 0-.883-.354-1.683-.928-2.261C9.66 1.357 8.872 1 8 1z"/>
</svg>
