<svg xmlns="http://www.w3.org/2000/svg" xmlns:xlink="http://www.w3.org/1999/xlink" width="375" height="160" viewBox="0 0 375 160">
    <defs>
        <path id="prefix__a" d="M0 0.5H375V158.5H0z"/>
    </defs>
    <g fill="none" fill-rule="evenodd" transform="translate(0 .5)">
        <mask id="prefix__b" fill="#fff">
            <use xlink:href="#prefix__a"/>
        </mask>
        <g fill-rule="nonzero" mask="url(#prefix__b)">
            <g>
                <path fill="#0F3476" d="M100.345 570.65L82.798 570.65 82.798 925.127 100.345 925.127zM17.694 925.127H.146v-410.27c0-10.6 1.29-21.2 3.868-31.442l17.046 4.298c-2.22 8.81-3.366 17.977-3.366 27.144v410.27zM57.301 545.439L39.753 545.439 39.753 925.127 57.301 925.127z" transform="matrix(0 1 1 0 -370.5 .5)"/>
                <path fill="#FF5959" d="M129.352 548.304c-49.42 0-89.67-40.18-89.67-89.67V1h17.547v457.634c0 39.75 32.373 72.122 72.123 72.122 11.746 0 23.349-2.864 33.662-8.308l8.237 15.543c-12.82 6.66-27.288 10.313-41.9 10.313z" transform="matrix(0 1 1 0 -370.5 .5)"/>
                <path fill="#FF5959" d="M129.352 585.547C58.088 585.547.146 527.605.146 456.342V1h17.548v455.342C17.694 517.936 67.829 568 129.352 568c11.96 0 23.707-1.862 35.023-5.587l5.515 16.688c-13.035 4.226-26.715 6.446-40.538 6.446zm126.126-101.13l-17.118-3.796c1.79-7.95 2.65-16.115 2.65-24.351V.928h17.547V456.27c0 9.526-1.002 18.98-3.08 28.147z" transform="matrix(0 1 1 0 -370.5 .5)"/>
                <path fill="#FF5959" d="M129.352 507.623c-25.712 0-46.626-20.913-46.626-46.625V356.072h17.547v104.997c0 16.043 13.036 29.079 29.079 29.079 8.451 0 16.544-3.725 22.06-10.171l13.32 11.388c-8.88 10.313-21.772 16.258-35.38 16.258zm46.626-107.075H158.43v-44.476h17.548v44.476z" transform="matrix(0 1 1 0 -370.5 .5)"/>
                <path fill="#0F3476" d="M219.022 615.127h-17.547V512.565c0-39.75-32.373-72.123-72.123-72.123-11.746 0-23.42 2.865-33.734 8.38l-8.236-15.542c12.82-6.804 27.359-10.385 41.898-10.385 49.42 0 89.67 40.18 89.67 89.67v102.562h.072z" transform="matrix(0 1 1 0 -370.5 .5)"/>
                <path fill="#0F3476" d="M258.557 615.126H241.01v-100.27c0-61.595-50.135-111.658-111.658-111.658-11.961 0-23.779 1.862-35.095 5.658l-5.515-16.688c13.036-4.297 26.715-6.517 40.61-6.517 71.263 0 129.205 57.941 129.205 129.205v100.27z" transform="matrix(0 1 1 0 -370.5 .5)"/>
                <path fill="#0F3476" d="M175.977 615.127H158.43V510.13c0-16.043-13.036-29.079-29.079-29.079-8.451 0-16.544 3.724-22.06 10.17l-13.32-11.387c8.88-10.385 21.772-16.33 35.38-16.33 25.712 0 46.626 20.914 46.626 46.626v104.997z" transform="matrix(0 1 1 0 -370.5 .5)"/>
                <path fill="#FF5959" d="M129.352 507.623c-25.712 0-46.626-20.913-46.626-46.625V1h17.547v460.069c0 16.043 13.036 29.079 29.079 29.079v17.475z" transform="matrix(0 1 1 0 -370.5 .5)"/>
            </g>
        </g>
    </g>
</svg>
